<!DOCTYPE svg PUBLIC "-//W3C//DTD SVG 1.1//EN" "http://www.w3.org/Graphics/SVG/1.1/DTD/svg11.dtd">
<!-- Uploaded to: SVG Repo, www.svgrepo.com, Transformed by: SVG Repo Mixer Tools -->
<svg fill="#000000" version="1.1" id="Capa_1" xmlns="http://www.w3.org/2000/svg" xmlns:xlink="http://www.w3.org/1999/xlink" width="800px" height="800px" viewBox="0 0 95.438 95.438" xml:space="preserve" transform="rotate(90)">
<g id="SVGRepo_bgCarrier" stroke-width="0"/>
<g id="SVGRepo_tracerCarrier" stroke-linecap="round" stroke-linejoin="round"/>
<g id="SVGRepo_iconCarrier"> <g> <path d="M54.719,6.974c0-1.043-0.84-1.884-1.885-1.884h-10.23c-1.044,0-1.884,0.841-1.884,1.884v0.05 c0,1.043,0.84,1.884,1.884,1.884h10.23c1.045,0,1.885-0.84,1.885-1.884V6.974z"/> <g> <path d="M69.352,0H26.087c-4.211,0-7.636,3.423-7.636,7.635v80.168c0,4.212,3.425,7.636,7.636,7.636h43.264 c4.214,0,7.636-3.424,7.636-7.636V7.636C76.987,3.423,73.565,0,69.352,0z M47.719,92.574c-2.276,0-4.135-1.856-4.135-4.136 c0-2.276,1.858-4.136,4.135-4.136c2.279,0,4.136,1.857,4.136,4.136C51.856,90.718,49.998,92.574,47.719,92.574z M70.625,80.169 c0,0.698-0.572,1.272-1.273,1.272H26.087c-0.698,0-1.272-0.574-1.272-1.272V15.271c0-0.7,0.574-1.272,1.272-1.272h43.264 c0.701,0,1.273,0.573,1.273,1.272V80.169z"/> <path d="M42.779,39.462c0-2.536,2.379-4.307,5.422-4.307c4.504,0,7.952,3.144,7.952,3.144l2.836-5.323 c0,0-3.037-3.193-8.916-3.697v-4.66h-4.354v4.763c-5.624,0.911-9.526,4.962-9.526,10.182c0,10.892,17.123,10.285,17.123,16.365 c0,2.938-2.482,4.354-5.218,4.354c-5.066,0-8.966-3.799-8.966-3.799L35.586,61.4c0,0,3.598,4,10.134,4.76v4.66h4.354v-4.66 c6.182-0.811,9.781-5.217,9.781-10.385C59.854,44.426,42.779,45.49,42.779,39.462z"/> </g> </g> </g>
</svg>